<?xml version="1.0" standalone="no"?>
<!DOCTYPE svg PUBLIC "-//W3C//DTD SVG 20010904//EN"
 "http://www.w3.org/TR/2001/REC-SVG-20010904/DTD/svg10.dtd">
<svg version="1.0" xmlns="http://www.w3.org/2000/svg"
 width="128.000000pt" height="128.000000pt" viewBox="0 0 128.000000 128.000000"
 preserveAspectRatio="xMidYMid meet">
<metadata>
Created by potrace 1.11, written by Peter Selinger 2001-2013
</metadata>
<g transform="translate(0.000000,128.000000) scale(0.100000,-0.100000)"
fill="#000000" stroke="none">
<path d="M111 1183 c-14 -10 -16 -59 -16 -453 0 -412 1 -442 18 -461 22 -23 6
-21 165 -23 l132 -2 113 -112 c80 -79 119 -112 136 -112 17 0 56 32 135 112
l111 113 132 0 c93 0 136 4 145 13 10 10 13 111 13 453 l0 440 -23 22 -24 22
-510 0 c-375 0 -515 -3 -527 -12z"/>
</g>
</svg>
